<?xml version="1.0" standalone="no"?>
<!DOCTYPE svg PUBLIC "-//W3C//DTD SVG 20010904//EN"
 "http://www.w3.org/TR/2001/REC-SVG-20010904/DTD/svg10.dtd">
<svg version="1.0" xmlns="http://www.w3.org/2000/svg"
 width="800.000000pt" height="800.000000pt" viewBox="0 0 800.000000 800.000000"
 preserveAspectRatio="xMidYMid meet">
<metadata>
Created by potrace 1.14, written by Peter Selinger 2001-2017
</metadata>
<g transform="translate(0.000000,800.000000) scale(0.100000,-0.100000)"
fill="#000000" stroke="none">
<path d="M3945 7630 l0 -371 -57 5 c-169 16 -357 105 -470 223 -92 96 -160
265 -160 399 l0 35 -56 -3 -57 -3 1 -35 c8 -354 268 -639 649 -714 44 -8 96
-17 115 -18 l34 -3 1 -325 c0 -179 -1 -334 -3 -345 -3 -19 -11 -20 -253 -19
l-249 0 0 -56 0 -56 246 0 c135 1 249 -1 252 -4 13 -10 8 -275 -5 -280 -7 -3
-121 -5 -253 -5 l-241 1 3 -56 3 -55 240 0 c132 -1 245 -4 250 -7 9 -5 12
-196 6 -273 -1 -6 -91 -10 -248 -10 l-248 0 -3 -55 -3 -56 250 1 c159 0 252
-4 254 -10 2 -9 1 -765 -2 -822 -1 -18 -7 -23 -29 -23 -72 0 -229 -62 -318
-125 l-46 -33 -300 300 -300 301 178 179 179 178 -41 39 -41 39 -178 -178
-178 -178 -99 100 c-98 98 -100 100 -81 120 10 11 90 92 177 180 l159 159 -38
39 c-21 22 -41 37 -45 35 -3 -2 -83 -81 -176 -174 -93 -94 -172 -171 -177
-171 -9 0 -197 187 -197 197 0 4 79 87 175 183 l175 176 -40 39 -40 39 -179
-178 -179 -178 -241 241 c-132 133 -241 243 -241 246 0 3 10 16 23 31 46 53
118 170 147 240 52 126 64 187 64 324 -1 107 -5 137 -27 205 -15 44 -43 108
-64 143 -48 78 -114 162 -128 162 -6 0 -26 -16 -45 -35 l-33 -34 27 -33 c169
-207 204 -411 113 -661 -31 -84 -139 -257 -161 -257 -4 0 -123 117 -265 259
l-259 259 -36 -37 c-20 -20 -36 -40 -36 -44 0 -4 115 -122 255 -262 140 -140
255 -258 255 -262 -1 -11 -74 -65 -146 -107 -151 -88 -319 -120 -472 -90 -102
19 -216 76 -296 148 -16 14 -32 26 -36 26 -9 0 -70 -64 -70 -74 0 -23 138
-122 223 -161 170 -78 382 -82 572 -10 84 31 193 93 257 146 26 22 49 39 52
39 3 0 114 -109 247 -241 l241 -241 -178 -179 -178 -179 34 -35 c19 -19 39
-35 45 -35 5 0 87 77 180 170 93 94 173 170 177 170 10 0 198 -186 198 -195 0
-4 -66 -74 -147 -155 -82 -81 -160 -161 -175 -177 l-28 -29 40 -39 39 -38 177
176 c97 98 178 177 180 177 2 0 49 -44 103 -99 l99 -98 -174 -174 c-96 -96
-174 -179 -174 -184 0 -17 69 -80 77 -71 5 3 85 83 179 177 l171 171 301 -300
301 -300 -33 -44 c-60 -79 -99 -179 -130 -328 l-5 -25 -418 0 c-230 0 -420 3
-423 7 -3 3 -5 117 -4 252 l0 246 -56 0 -56 0 1 -250 c0 -215 -2 -250 -15
-251 -88 -6 -270 -2 -271 6 -1 6 -2 118 -3 250 l-1 240 -56 3 -55 3 1 -233 c0
-128 -1 -242 -3 -253 -3 -19 -11 -20 -137 -20 -74 0 -137 4 -141 8 -5 4 -8
117 -8 250 l-1 242 -55 3 -56 3 1 -241 c0 -132 -2 -246 -5 -253 -4 -9 -88 -12
-343 -12 -291 0 -338 2 -341 15 -3 8 -7 42 -11 75 -30 264 -192 514 -404 623
-110 58 -171 74 -319 86 l-42 3 0 -56 0 -57 38 -2 c300 -18 513 -202 597 -517
18 -67 29 -165 18 -166 -4 -1 -170 -2 -368 -3 l-360 -1 -3 -55 -3 -56 368 0
368 0 -2 -50 c-2 -71 -30 -176 -68 -260 -105 -230 -305 -367 -548 -376 l-37
-1 0 -58 0 -58 53 5 c114 10 148 18 237 52 203 79 355 248 435 482 13 39 22
70 20 70 -3 0 0 11 5 24 5 13 12 50 15 83 4 32 8 65 11 73 3 13 50 15 344 15
219 0 340 -4 341 -10 1 -5 2 -118 3 -250 l1 -240 56 -3 55 -3 0 235 c-1 129 1
243 4 253 5 16 18 18 140 18 74 0 137 -3 140 -7 3 -3 5 -117 5 -252 l-1 -246
56 0 56 0 -1 233 c0 127 1 241 3 252 3 19 11 20 139 20 126 -1 136 -2 142 -20
4 -11 7 -125 6 -252 l-1 -233 56 0 56 0 -1 238 c0 130 1 244 3 252 3 13 57 15
420 14 229 -1 420 -2 425 -3 4 -1 7 -13 7 -27 0 -76 59 -227 123 -318 l35 -48
-300 -300 -300 -300 -174 173 c-96 96 -177 176 -179 178 -3 2 -23 -13 -44 -35
l-40 -39 178 -179 179 -179 -100 -99 c-85 -86 -101 -98 -115 -86 -8 7 -84 81
-167 166 -83 84 -158 157 -167 162 -12 7 -25 0 -53 -29 l-36 -37 175 -175 c96
-96 175 -177 175 -181 0 -10 -187 -198 -197 -198 -4 0 -87 79 -183 175 l-174
174 -40 -40 -40 -39 178 -179 178 -179 -241 -241 c-153 -153 -246 -239 -254
-235 -7 4 -30 22 -52 39 -96 75 -207 132 -330 168 -53 15 -100 20 -195 21
-143 1 -226 -19 -340 -81 -72 -39 -180 -122 -180 -139 0 -11 61 -74 72 -74 4
0 22 14 40 31 40 37 129 92 183 113 186 73 411 45 600 -74 82 -51 125 -84 125
-94 0 -4 -115 -121 -255 -261 -140 -140 -255 -259 -255 -265 0 -5 17 -25 37
-43 l36 -34 258 258 c142 143 262 259 266 259 26 -1 137 -186 169 -282 32 -92
38 -134 37 -229 -1 -151 -44 -261 -157 -403 l-29 -37 33 -34 c19 -19 39 -35
45 -35 18 0 113 128 150 203 19 40 42 99 51 132 22 81 26 234 9 320 -25 129
-94 281 -174 383 -21 26 -40 52 -44 59 -5 8 79 99 234 254 l241 241 179 -178
179 -178 40 39 40 39 -175 176 c-96 96 -175 179 -175 183 0 10 188 197 198
197 4 0 81 -74 171 -165 90 -90 169 -169 175 -175 9 -7 23 2 51 30 l38 39
-134 135 c-74 74 -154 155 -178 179 l-43 45 100 100 99 100 174 -174 c96 -96
179 -174 184 -174 17 0 80 69 71 77 -3 5 -84 85 -177 179 l-171 171 299 300
300 300 64 -42 c77 -52 171 -91 253 -106 34 -6 66 -13 71 -14 6 -2 10 -146 9
-411 -1 -225 -2 -416 -3 -424 -1 -13 -36 -15 -251 -14 l-251 0 3 -55 3 -56
240 -1 c132 -1 245 -2 250 -3 6 -1 10 -55 10 -141 0 -86 -4 -140 -10 -141 -5
-1 -118 -2 -250 -3 l-240 -1 -3 -55 -3 -56 233 1 c128 1 242 -2 253 -6 20 -7
21 -14 19 -135 -1 -71 -3 -133 -3 -139 -1 -6 -91 -10 -251 -9 l-250 0 0 -56 0
-56 250 1 c138 0 250 -2 251 -5 4 -18 3 -673 -1 -679 -3 -5 -35 -11 -72 -15
-37 -3 -106 -18 -153 -31 -330 -96 -543 -346 -569 -669 l-5 -66 58 0 59 0 0
39 c3 175 101 363 247 471 103 76 265 137 377 142 l62 3 0 -368 0 -367 56 0
56 0 -1 370 0 371 57 -5 c146 -14 320 -88 425 -181 125 -112 201 -273 205
-433 l1 -43 56 3 56 3 -3 62 c-6 147 -78 321 -179 432 -137 152 -327 243 -563
270 l-54 6 -1 333 c0 183 2 338 5 345 4 9 67 12 250 12 l245 0 3 55 3 55 -251
0 c-137 0 -251 2 -251 5 -7 31 -2 280 6 283 6 2 119 3 253 2 l243 -1 -3 56 -3
55 -248 0 c-136 0 -247 2 -248 5 -1 3 -2 67 -3 142 -1 115 1 137 14 140 8 2
122 3 253 3 l237 -1 0 56 0 56 -232 -1 c-128 -1 -242 2 -253 6 -19 6 -19 18
-20 418 0 227 2 416 5 420 3 4 34 12 70 19 89 16 183 54 259 106 l64 43 300
-300 299 -300 -178 -178 -178 -179 34 -35 c19 -19 39 -35 45 -35 5 0 88 78
184 174 l173 174 100 -100 c99 -98 100 -99 82 -120 -11 -11 -91 -92 -178 -180
l-159 -159 39 -40 c21 -21 39 -39 40 -39 1 0 80 79 176 175 96 96 178 175 181
175 10 0 197 -188 197 -197 0 -5 -76 -85 -170 -178 -93 -93 -170 -175 -170
-181 0 -6 16 -26 36 -44 l36 -33 178 178 178 177 241 -241 c132 -132 241 -244
241 -248 0 -4 -11 -18 -24 -32 -43 -47 -115 -162 -145 -236 -49 -117 -63 -181
-66 -304 -3 -124 13 -204 60 -308 39 -87 138 -223 162 -223 10 0 73 62 73 71
0 3 -12 19 -26 35 -176 197 -207 465 -84 719 39 79 117 195 133 195 4 0 124
-117 267 -260 l259 -259 35 37 c20 20 36 40 36 44 0 5 -115 123 -255 263 -140
140 -255 258 -255 262 0 15 115 93 195 133 250 124 522 92 719 -84 16 -14 32
-26 36 -26 9 0 70 64 70 74 0 18 -101 96 -180 139 -112 61 -197 82 -335 81
-134 0 -203 -14 -325 -67 -68 -30 -172 -94 -241 -148 l-27 -21 -242 242 -242
242 178 179 178 179 -39 40 -39 40 -176 -175 c-96 -96 -179 -175 -183 -175
-10 0 -197 188 -197 198 0 4 79 86 176 182 l176 175 -42 38 -41 38 -158 -158
c-87 -87 -168 -166 -179 -176 -21 -19 -22 -18 -120 81 l-100 99 178 178 178
178 -39 41 -39 41 -179 -179 -179 -179 -300 301 -300 300 34 48 c63 88 108
200 121 294 3 25 7 47 10 50 7 7 806 7 828 -1 19 -6 20 -15 20 -253 l0 -247
55 3 55 3 1 235 c1 129 2 242 3 250 1 13 23 15 137 15 128 0 137 -2 143 -20 4
-11 6 -125 6 -252 l-1 -233 56 0 56 0 -1 240 c0 133 2 246 5 253 5 13 270 18
280 5 3 -3 5 -117 4 -252 l0 -246 56 0 56 0 0 250 c-1 215 1 250 14 251 8 1
162 2 343 3 283 1 328 -1 331 -14 3 -8 7 -41 11 -73 14 -124 75 -289 145 -394
48 -71 156 -174 226 -215 104 -61 204 -90 352 -102 l42 -4 0 57 0 57 -37 2
c-301 18 -514 202 -598 517 -22 84 -29 162 -13 166 7 3 174 4 371 4 l358 -1
-3 56 -3 55 -365 0 -365 1 2 53 c4 84 31 179 81 281 93 191 272 323 468 346
33 3 69 6 82 6 22 0 23 4 20 57 l-3 56 -60 -3 c-209 -11 -418 -126 -541 -298
-83 -116 -145 -276 -159 -411 -4 -32 -8 -65 -11 -73 -3 -13 -49 -15 -339 -14
-184 0 -338 4 -342 8 -4 4 -8 116 -8 249 l0 242 -55 3 -56 3 1 -238 c0 -131
-1 -245 -3 -253 -3 -13 -25 -15 -138 -14 -74 0 -137 4 -141 8 -4 4 -8 116 -8
249 l0 242 -56 3 -55 3 0 -251 c1 -243 0 -250 -19 -251 -54 -3 -251 -5 -260
-2 -6 2 -10 95 -9 253 l0 250 -56 0 -56 0 0 -250 c1 -161 -2 -250 -9 -251 -32
-3 -822 -4 -832 -1 -7 2 -13 16 -13 31 0 67 -56 213 -114 300 l-43 64 299 299
300 300 174 -174 c96 -95 178 -174 182 -176 4 -1 24 15 44 35 l37 38 -178 179
-178 179 86 86 c47 47 94 92 103 99 14 11 39 -10 191 -164 l176 -176 41 38 41
39 -176 177 c-96 97 -175 180 -175 183 0 9 188 195 197 195 4 0 87 -79 183
-175 l176 -175 39 40 39 40 -178 179 -178 179 241 241 c140 140 246 239 253
235 6 -4 38 -28 72 -53 146 -111 327 -174 496 -175 141 -1 225 17 325 67 79
39 205 134 205 154 0 5 -15 24 -34 42 -29 28 -37 31 -55 22 -12 -7 -21 -15
-21 -19 0 -11 -115 -84 -170 -109 -111 -50 -274 -62 -402 -28 -35 10 -99 35
-143 56 -79 39 -195 117 -195 132 0 4 115 122 255 262 140 140 255 259 255
265 0 5 -17 25 -37 43 l-37 34 -257 -258 c-142 -143 -262 -259 -266 -259 -15
0 -93 115 -133 195 -69 140 -94 328 -60 455 24 90 84 198 144 263 14 15 26 31
26 36 0 9 -64 71 -74 71 -18 0 -96 -101 -139 -180 -61 -112 -82 -197 -81 -335
0 -132 19 -220 73 -340 32 -70 110 -192 142 -221 10 -9 19 -21 19 -25 0 -5
-109 -117 -241 -250 l-241 -241 -179 178 -179 178 -40 -39 -40 -39 175 -176
c96 -96 175 -179 175 -183 0 -4 -44 -51 -98 -105 l-98 -99 -166 166 c-91 92
-173 172 -180 179 -12 9 -22 4 -53 -28 l-38 -39 176 -177 c98 -97 177 -178
177 -180 0 -3 -44 -49 -99 -103 l-99 -99 -173 174 c-96 96 -177 174 -182 174
-12 0 -78 -63 -75 -72 2 -4 81 -86 176 -182 l174 -174 -300 -301 -301 -300
-23 18 c-93 73 -262 142 -355 144 -16 0 -15 -40 -17 434 -1 404 -1 412 19 415
11 2 125 3 253 3 l233 -1 -3 56 -3 55 -244 0 c-234 0 -244 1 -250 20 -6 16 -7
169 -2 250 1 19 8 20 248 20 l248 0 3 55 3 56 -247 -1 c-139 0 -248 4 -252 9
-10 17 -8 276 3 277 5 1 118 2 250 2 l240 2 3 55 3 56 -247 -1 c-145 0 -248 4
-252 10 -7 11 -9 664 -2 674 3 5 32 11 65 14 285 31 529 185 645 408 46 89 78
203 82 293 l3 61 -55 0 -55 0 -7 -75 c-29 -283 -240 -500 -549 -563 -37 -7
-82 -13 -100 -13 l-33 1 0 368 0 367 -56 0 -56 0 1 -370z m0 -3270 c0 -121 -1
-220 -2 -220 -2 0 -72 69 -157 154 l-154 154 21 20 c48 44 207 109 272 111 19
1 20 -5 20 -219z m265 183 c36 -15 87 -41 113 -59 l49 -32 -156 -156 c-86 -86
-156 -155 -157 -154 -3 8 -5 424 -1 431 6 13 82 -3 152 -30z m-360 -480 c0
-10 -417 -9 -427 1 -9 8 19 116 46 177 11 24 34 64 51 87 l30 42 150 -150 c83
-82 150 -153 150 -157z m697 137 c24 -65 38 -140 26 -141 -47 -6 -423 -2 -423
4 0 4 68 76 151 158 l152 151 37 -58 c20 -33 46 -84 57 -114z m-687 -258 c0
-5 -312 -314 -314 -310 -1 1 -13 19 -27 38 -55 76 -115 254 -92 268 10 6 433
10 433 4z m717 -5 c9 -9 -19 -117 -46 -178 -11 -24 -34 -64 -51 -87 l-30 -42
-155 155 c-85 86 -155 157 -155 158 0 6 430 0 437 -6z m-633 -296 c0 -116 -3
-214 -6 -217 -20 -20 -206 49 -275 102 l-33 25 153 153 c83 84 154 152 157
150 3 -1 5 -97 4 -213z m271 64 l155 -154 -33 -24 c-70 -53 -234 -116 -270
-104 -8 2 -11 64 -12 220 0 119 1 217 2 217 2 0 72 -70 158 -155z"/>
</g>
</svg>
